<svg width="11" height="13" viewBox="0 0 11 13" fill="none" xmlns="http://www.w3.org/2000/svg">
<path d="M9.16669 1.5H1.83335C1.32781 1.5 0.916687 1.9485 0.916687 2.5V8.5C0.916687 9.0515 1.32781 9.5 1.83335 9.5H3.20835V11.3835L6.08531 9.5H9.16669C9.67223 9.5 10.0834 9.0515 10.0834 8.5V2.5C10.0834 1.9485 9.67223 1.5 9.16669 1.5ZM9.16669 8.5H5.8314L4.12502 9.6165V8.5H1.83335V2.5H9.16669V8.5Z" fill="#F5B309"/>
<path d="M5.04169 7.5H5.95835V6H7.33335V5H5.95835V3.5H5.04169V5H3.66669V6H5.04169V7.5Z" fill="#F5B309"/>
</svg>
