<svg width="16" height="16" viewBox="0 0 16 16" fill="currentColor" xmlns="http://www.w3.org/2000/svg">
<path d="M11.3333 14.6667C10.4111 14.6667 9.62507 14.3416 8.97529 13.6913C8.32552 13.0411 8.0004 12.2551 7.99996 11.3333C7.99952 10.4116 8.32463 9.62557 8.97529 8.97534C9.62596 8.32512 10.412 8.00001 11.3333 8.00001C12.2546 8.00001 13.0408 8.32512 13.692 8.97534C14.3431 9.62557 14.668 10.4116 14.6666 11.3333C14.6653 12.2551 14.3402 13.0413 13.6913 13.692C13.0424 14.3427 12.2564 14.6676 11.3333 14.6667ZM7.99996 14.6667C6.45551 14.2778 5.1804 13.3916 4.17463 12.008C3.16885 10.6245 2.66618 9.08845 2.66663 7.40001V3.33334L7.99996 1.33334L13.3333 3.33334V7.11668C13.0444 6.97223 12.7193 6.86112 12.358 6.78334C11.9966 6.70557 11.6551 6.66668 11.3333 6.66668C10.0444 6.66668 8.9444 7.12223 8.03329 8.03334C7.12218 8.94445 6.66663 10.0445 6.66663 11.3333C6.66663 12.0222 6.79729 12.6445 7.05863 13.2C7.31996 13.7556 7.6504 14.2389 8.04996 14.65C8.03885 14.65 8.03063 14.6529 8.02529 14.6587C8.01996 14.6645 8.01152 14.6671 7.99996 14.6667ZM11.3333 11.3333C11.6111 11.3333 11.8473 11.2362 12.042 11.042C12.2366 10.8478 12.3337 10.6116 12.3333 10.3333C12.3328 10.0551 12.2357 9.81912 12.042 9.62534C11.8482 9.43157 11.612 9.33423 11.3333 9.33334C11.0546 9.33245 10.8186 9.42979 10.6253 9.62534C10.432 9.8209 10.3346 10.0569 10.3333 10.3333C10.332 10.6098 10.4293 10.846 10.6253 11.042C10.8213 11.238 11.0573 11.3351 11.3333 11.3333ZM11.3333 13.3333C11.6777 13.3333 11.9944 13.2527 12.2833 13.0913C12.5722 12.93 12.8055 12.7162 12.9833 12.45C12.7388 12.3056 12.4777 12.1945 12.2 12.1167C11.9222 12.0389 11.6333 12 11.3333 12C11.0333 12 10.7444 12.0389 10.4666 12.1167C10.1888 12.1945 9.92774 12.3056 9.68329 12.45C9.86107 12.7167 10.0944 12.9307 10.3833 13.092C10.6722 13.2533 10.9888 13.3338 11.3333 13.3333Z"/>
</svg>
