<svg width="31" height="30" viewBox="0 0 31 30" fill="none" xmlns="http://www.w3.org/2000/svg">
<g clip-path="url(#clip0_1_3991)">
<circle cx="15.5" cy="15" r="15" fill="url(#paint0_linear_1_3991)"/>
<path d="M11.26 24C10.3181 24.0025 9.39679 23.7249 8.61304 23.2025C7.82929 22.6801 7.21854 21.9365 6.85841 21.0662C6.49828 20.1959 6.40502 19.2381 6.59049 18.3147C6.77596 17.3912 7.23178 16.5438 7.90003 15.88L9.31003 14.47C9.45066 14.3295 9.64128 14.2507 9.84003 14.2507C10.0388 14.2507 10.2294 14.3295 10.37 14.47C10.4408 14.5389 10.497 14.6214 10.5354 14.7124C10.5738 14.8034 10.5936 14.9012 10.5936 15C10.5936 15.0988 10.5738 15.1966 10.5354 15.2876C10.497 15.3786 10.4408 15.4611 10.37 15.53L8.96003 16.94C8.35182 17.5509 8.01035 18.3779 8.01035 19.24C8.01035 20.1021 8.35182 20.9291 8.96003 21.54C9.57956 22.1317 10.4033 22.4619 11.26 22.4619C12.1167 22.4619 12.9405 22.1317 13.56 21.54L16.38 18.71C16.6821 18.409 16.9217 18.0513 17.0853 17.6575C17.2488 17.2637 17.333 16.8414 17.333 16.415C17.333 15.9886 17.2488 15.5663 17.0853 15.1725C16.9217 14.7787 16.6821 14.421 16.38 14.12C16.2396 13.9794 16.1607 13.7887 16.1607 13.59C16.1607 13.3912 16.2396 13.2006 16.38 13.06C16.449 12.9892 16.5314 12.933 16.6224 12.8946C16.7134 12.8562 16.8112 12.8364 16.91 12.8364C17.0088 12.8364 17.1066 12.8562 17.1976 12.8946C17.2887 12.933 17.3711 12.9892 17.44 13.06C17.8824 13.4996 18.2334 14.0223 18.473 14.5981C18.7125 15.1739 18.8358 15.7914 18.8358 16.415C18.8358 17.0386 18.7125 17.6561 18.473 18.2319C18.2334 18.8077 17.8824 19.3304 17.44 19.77L14.62 22.6C14.1809 23.0446 13.6576 23.3973 13.0807 23.6377C12.5039 23.8781 11.885 24.0012 11.26 24Z" fill="black"/>
<path d="M14.09 17.16C13.9912 17.1622 13.8931 17.1438 13.8018 17.1059C13.7106 17.068 13.6282 17.0115 13.56 16.94C13.1165 16.5011 12.7644 15.9786 12.5241 15.4027C12.2838 14.8268 12.16 14.209 12.16 13.585C12.16 12.961 12.2838 12.3432 12.5241 11.7673C12.7644 11.1914 13.1165 10.6689 13.56 10.23L16.38 7.4C17.2712 6.50887 18.4798 6.00824 19.74 6.00824C21.0003 6.00824 22.2089 6.50887 23.1 7.4C23.9912 8.29112 24.4918 9.49975 24.4918 10.76C24.4918 12.0202 23.9912 13.2289 23.1 14.12L21.69 15.53C21.5494 15.6704 21.3588 15.7493 21.16 15.7493C20.9613 15.7493 20.7707 15.6704 20.63 15.53C20.5593 15.4611 20.503 15.3786 20.4646 15.2876C20.4262 15.1966 20.4065 15.0988 20.4065 15C20.4065 14.9012 20.4262 14.8034 20.4646 14.7124C20.503 14.6214 20.5593 14.5389 20.63 14.47L22.04 13.06C22.6482 12.4491 22.9897 11.6221 22.9897 10.76C22.9897 9.89792 22.6482 9.07094 22.04 8.46C21.4205 7.86827 20.5967 7.53809 19.74 7.53809C18.8833 7.53809 18.0596 7.86827 17.44 8.46L14.62 11.29C14.3156 11.5896 14.0738 11.9469 13.9087 12.3409C13.7437 12.7349 13.6587 13.1578 13.6587 13.585C13.6587 14.0122 13.7437 14.4351 13.9087 14.8291C14.0738 15.2231 14.3156 15.5804 14.62 15.88C14.7605 16.0206 14.8394 16.2112 14.8394 16.41C14.8394 16.6087 14.7605 16.7994 14.62 16.94C14.5508 17.0101 14.4682 17.0657 14.3772 17.1035C14.2862 17.1412 14.1886 17.1605 14.09 17.16Z" fill="black"/>
</g>
<defs>
<linearGradient id="paint0_linear_1_3991" x1="0.500031" y1="0" x2="36.0334" y2="9.6726" gradientUnits="userSpaceOnUse">
<stop stop-color="#FABB18"/>
<stop offset="1" stop-color="#C48E02"/>
</linearGradient>
<clipPath id="clip0_1_3991">
<rect width="30" height="30" fill="white" transform="translate(0.500031)"/>
</clipPath>
</defs>
</svg>
