<svg width="10" height="10" viewBox="0 0 10 10" fill="none" xmlns="http://www.w3.org/2000/svg">
<path d="M2 6H8V5H2V6ZM2 4.5H8V3.5H2V4.5ZM2 3H8V2H2V3ZM1 8C0.725 8 0.489667 7.90217 0.294 7.7065C0.0983334 7.51083 0.000333333 7.27533 0 7V1C0 0.725 0.098 0.489667 0.294 0.294C0.49 0.0983334 0.725333 0.000333333 1 0H9C9.275 0 9.5105 0.098 9.7065 0.294C9.9025 0.49 10.0003 0.725333 10 1V10L8 8H1Z" fill="url(#paint0_linear_3_160)"/>
<defs>
<linearGradient id="paint0_linear_3_160" x1="0" y1="0" x2="11.8445" y2="3.2242" gradientUnits="userSpaceOnUse">
<stop stop-color="#FABB18"/>
<stop offset="1" stop-color="#C48E02"/>
</linearGradient>
</defs>
</svg>
