<svg width="16" height="16" viewBox="0 0 16 16" fill="currentColor" xmlns="http://www.w3.org/2000/svg">
<path d="M5.66728 4.33333C5.66728 4.02692 5.72763 3.7235 5.84489 3.44041C5.96215 3.15731 6.13402 2.90009 6.35069 2.68342C6.56736 2.46675 6.82459 2.29488 7.10768 2.17761C7.39077 2.06035 7.69419 2 8.00061 2C8.30703 2 8.61044 2.06035 8.89354 2.17761C9.17663 2.29488 9.43385 2.46675 9.65052 2.68342C9.86719 2.90009 10.0391 3.15731 10.1563 3.44041C10.2736 3.7235 10.3339 4.02692 10.3339 4.33333C10.3339 4.95217 10.0881 5.54566 9.65052 5.98325C9.21294 6.42083 8.61945 6.66667 8.00061 6.66667C7.38177 6.66667 6.78828 6.42083 6.35069 5.98325C5.91311 5.54566 5.66728 4.95217 5.66728 4.33333ZM3.00061 7.33333C3.44264 7.33333 3.86656 7.15774 4.17912 6.84518C4.49168 6.53262 4.66728 6.10869 4.66728 5.66667C4.66728 5.22464 4.49168 4.80072 4.17912 4.48816C3.86656 4.17559 3.44264 4 3.00061 4C2.55858 4 2.13466 4.17559 1.8221 4.48816C1.50954 4.80072 1.33394 5.22464 1.33394 5.66667C1.33394 6.10869 1.50954 6.53262 1.8221 6.84518C2.13466 7.15774 2.55858 7.33333 3.00061 7.33333ZM14.6673 5.66667C14.6673 6.10869 14.4917 6.53262 14.1791 6.84518C13.8666 7.15774 13.4426 7.33333 13.0006 7.33333C12.5586 7.33333 12.1347 7.15774 11.8221 6.84518C11.5095 6.53262 11.3339 6.10869 11.3339 5.66667C11.3339 5.22464 11.5095 4.80072 11.8221 4.48816C12.1347 4.17559 12.5586 4 13.0006 4C13.4426 4 13.8666 4.17559 14.1791 4.48816C14.4917 4.80072 14.6673 5.22464 14.6673 5.66667ZM7.00061 8C6.08061 8 5.33394 8.74667 5.33394 9.66667V11.3333C5.33394 12.0406 5.61489 12.7189 6.11499 13.219C6.61509 13.719 7.29336 14 8.00061 14C8.70785 14 9.38613 13.719 9.88623 13.219C10.3863 12.7189 10.6673 12.0406 10.6673 11.3333V9.66667C10.6673 8.74667 9.92061 8 9.00061 8H7.00061ZM4.00061 9.66667C4.00061 9.28133 4.07261 8.91333 4.20594 8.576L2.56461 9.016C2.13789 9.13039 1.77404 9.40951 1.55303 9.79204C1.33202 10.1746 1.27192 10.6292 1.38594 11.056L1.64461 12.0227C1.73527 12.361 1.89169 12.6781 2.10493 12.956C2.31817 13.2338 2.58406 13.4669 2.88741 13.642C3.19076 13.8171 3.52563 13.9307 3.87288 13.9763C4.22014 14.022 4.57299 13.9987 4.91128 13.908L4.93394 13.9013C4.33105 13.1814 4.00065 12.2724 4.00061 11.3333V9.66667ZM12.0006 11.3333C12.0006 12.3107 11.6499 13.2067 11.0673 13.9027L11.0886 13.908C11.7716 14.0909 12.4993 13.995 13.1116 13.6414C13.724 13.2879 14.1708 12.7056 14.3539 12.0227L14.6126 11.056C14.7266 10.6292 14.6665 10.1746 14.4455 9.79204C14.2245 9.40951 13.8607 9.13039 13.4339 9.016L11.7966 8.576C11.9286 8.91467 12.0006 9.28267 12.0006 9.66667V11.3333Z"/>
</svg>
