<svg width="14" height="12" viewBox="0 0 14 12" fill="none" xmlns="http://www.w3.org/2000/svg">
<path d="M9.33333 3.66677H8.16667V5.41677H6.41667V6.58344H8.16667V8.33344H9.33333V6.58344H11.0833V5.41677H9.33333V3.66677ZM1.16667 6.00011C1.16667 4.37261 2.12333 2.96677 3.50583 2.31344V1.05344C1.47 1.77677 0 3.71927 0 6.00011C0 8.28094 1.47 10.2234 3.50583 10.9468V9.68677C2.12333 9.03344 1.16667 7.62761 1.16667 6.00011ZM8.75 0.750107C5.85667 0.750107 3.5 3.10677 3.5 6.00011C3.5 8.89344 5.85667 11.2501 8.75 11.2501C11.6433 11.2501 14 8.89344 14 6.00011C14 3.10677 11.6433 0.750107 8.75 0.750107ZM8.75 10.0834C6.49833 10.0834 4.66667 8.25177 4.66667 6.00011C4.66667 3.74844 6.49833 1.91677 8.75 1.91677C11.0017 1.91677 12.8333 3.74844 12.8333 6.00011C12.8333 8.25177 11.0017 10.0834 8.75 10.0834Z" fill="url(#paint0_linear_1_32)"/>
<defs>
<linearGradient id="paint0_linear_1_32" x1="0" y1="0.750107" x2="15.7378" y2="6.46212" gradientUnits="userSpaceOnUse">
<stop stop-color="#FABB18"/>
<stop offset="1" stop-color="#C48E02"/>
</linearGradient>
</defs>
</svg>
