<svg width="16" height="16" viewBox="0 0 16 16" fill="currentColor" xmlns="http://www.w3.org/2000/svg">
<path d="M7.06667 8.83335L5.63333 7.40002C5.51111 7.2778 5.35556 7.21669 5.16667 7.21669C4.97778 7.21669 4.82222 7.2778 4.7 7.40002C4.57778 7.52224 4.51667 7.6778 4.51667 7.86669C4.51667 8.05558 4.57778 8.21113 4.7 8.33335L6.6 10.2334C6.73333 10.3667 6.88889 10.4334 7.06667 10.4334C7.24444 10.4334 7.4 10.3667 7.53333 10.2334L11.3 6.46669C11.4222 6.34446 11.4833 6.18891 11.4833 6.00002C11.4833 5.81113 11.4222 5.65558 11.3 5.53335C11.1778 5.41113 11.0222 5.35002 10.8333 5.35002C10.6444 5.35002 10.4889 5.41113 10.3667 5.53335L7.06667 8.83335ZM3.33333 14C2.96667 14 2.65289 13.8696 2.392 13.6087C2.13111 13.3478 2.00044 13.0338 2 12.6667V3.33335C2 2.96669 2.13067 2.65291 2.392 2.39202C2.65333 2.13113 2.96711 2.00046 3.33333 2.00002H6.13333C6.27778 1.60002 6.51956 1.2778 6.85867 1.03335C7.19778 0.788909 7.57822 0.666687 8 0.666687C8.42178 0.666687 8.80244 0.788909 9.142 1.03335C9.48156 1.2778 9.72311 1.60002 9.86667 2.00002H12.6667C13.0333 2.00002 13.3473 2.13069 13.6087 2.39202C13.87 2.65335 14.0004 2.96713 14 3.33335V12.6667C14 13.0334 13.8696 13.3474 13.6087 13.6087C13.3478 13.87 13.0338 14.0005 12.6667 14H3.33333ZM8 2.83335C8.14444 2.83335 8.264 2.78602 8.35867 2.69135C8.45333 2.59669 8.50044 2.47735 8.5 2.33335C8.49956 2.18935 8.45222 2.07002 8.358 1.97535C8.26378 1.88069 8.14444 1.83335 8 1.83335C7.85556 1.83335 7.73622 1.88069 7.642 1.97535C7.54778 2.07002 7.50044 2.18935 7.5 2.33335C7.49956 2.47735 7.54689 2.59691 7.642 2.69202C7.73711 2.78713 7.85644 2.83424 8 2.83335Z"/>
</svg>
