<svg width="12" height="12" viewBox="0 0 12 12" fill="none" xmlns="http://www.w3.org/2000/svg">
<path d="M3.42156 5.3998C3.66156 4.1998 4.74156 3.2998 6.00156 3.2998C6.90156 3.2998 7.62156 3.7198 8.10156 4.3798L9.12156 3.1798C8.40156 2.3398 7.26156 1.7998 6.00156 1.7998C3.90156 1.7998 2.16156 3.3598 1.86156 5.3998H0.601562L2.70156 7.7998L4.80156 5.3998H3.42156ZM9.30156 4.1998L7.20156 6.5998H8.58156C8.28156 7.7998 7.26156 8.6998 6.00156 8.6998C5.10156 8.6998 4.38156 8.2798 3.90156 7.6198L2.88156 8.7598C3.60156 9.6598 4.74156 10.1998 6.00156 10.1998C8.10156 10.1998 9.84156 8.6398 10.1416 6.5998H11.4016L9.30156 4.1998Z" fill="url(#paint0_linear_3_166)"/>
<defs>
<linearGradient id="paint0_linear_3_166" x1="0.601562" y1="1.7998" x2="12.8421" y2="6.08383" gradientUnits="userSpaceOnUse">
<stop stop-color="#FABB18"/>
<stop offset="1" stop-color="#C48E02"/>
</linearGradient>
</defs>
</svg>
