<svg width="20" height="20" viewBox="0 0 20 20" fill="none" xmlns="http://www.w3.org/2000/svg">
<path d="M10 14.95C12.097 14.95 13.87 13.636 14.599 11.8H5.401C6.121 13.636 7.903 14.95 10 14.95ZM6.85 9.1C7.20804 9.1 7.55142 8.95777 7.80459 8.70459C8.05777 8.45142 8.2 8.10804 8.2 7.75C8.2 7.39196 8.05777 7.04858 7.80459 6.79541C7.55142 6.54223 7.20804 6.4 6.85 6.4C6.49196 6.4 6.14858 6.54223 5.89541 6.79541C5.64223 7.04858 5.5 7.39196 5.5 7.75C5.5 8.10804 5.64223 8.45142 5.89541 8.70459C6.14858 8.95777 6.49196 9.1 6.85 9.1ZM13.15 9.1C13.508 9.1 13.8514 8.95777 14.1046 8.70459C14.3578 8.45142 14.5 8.10804 14.5 7.75C14.5 7.39196 14.3578 7.04858 14.1046 6.79541C13.8514 6.54223 13.508 6.4 13.15 6.4C12.792 6.4 12.4486 6.54223 12.1954 6.79541C11.9422 7.04858 11.8 7.39196 11.8 7.75C11.8 8.10804 11.9422 8.45142 12.1954 8.70459C12.4486 8.95777 12.792 9.1 13.15 9.1ZM10 17.2C8.09044 17.2 6.25909 16.4414 4.90883 15.0912C3.55857 13.7409 2.8 11.9096 2.8 10C2.8 8.09044 3.55857 6.25909 4.90883 4.90883C6.25909 3.55857 8.09044 2.8 10 2.8C11.9096 2.8 13.7409 3.55857 15.0912 4.90883C16.4414 6.25909 17.2 8.09044 17.2 10C17.2 11.9096 16.4414 13.7409 15.0912 15.0912C13.7409 16.4414 11.9096 17.2 10 17.2ZM10 1C5.023 1 1 5.05 1 10C1 12.3869 1.94821 14.6761 3.63604 16.364C4.47177 17.1997 5.46392 17.8626 6.55585 18.3149C7.64778 18.7672 8.8181 19 10 19C12.3869 19 14.6761 18.0518 16.364 16.364C18.0518 14.6761 19 12.3869 19 10C19 8.8181 18.7672 7.64778 18.3149 6.55585C17.8626 5.46392 17.1997 4.47177 16.364 3.63604C15.5282 2.80031 14.5361 2.13738 13.4442 1.68508C12.3522 1.23279 11.1819 1 10 1Z" fill="white" fill-opacity="0.6"/>
</svg>
