<svg
        width="72"
        height="29"
        viewBox="0 0 72 29"
        fill="none"
        xmlns="http://www.w3.org/2000/svg"
    >
        <rect width="72" height="29" rx="4" fill="#363842" />
        <path
            d="M31.5415 14.5C31.5415 20.299 26.8405 25 21.0415 25C15.2425 25 10.5415 20.299 10.5415 14.5C10.5415 8.70101 15.2425 4 21.0415 4C26.8405 4 31.5415 8.70101 31.5415 14.5Z"
            fill="#111218"
        />
        <path
            d="M20.5356 16.5977H21.6196C21.6196 16.4453 21.6235 16.3105 21.6313 16.1934C21.6392 16.0723 21.6587 15.959 21.6899 15.8535C21.7212 15.748 21.7681 15.6445 21.8306 15.543C21.897 15.4414 21.9888 15.334 22.106 15.2207C22.2896 15.0566 22.4751 14.8789 22.6626 14.6875C22.854 14.4961 23.0259 14.2891 23.1782 14.0664C23.3306 13.8477 23.4556 13.6152 23.5532 13.3691C23.6509 13.1191 23.6997 12.8535 23.6997 12.5723C23.6997 12.2207 23.6431 11.9082 23.5298 11.6348C23.4165 11.3613 23.2524 11.1289 23.0376 10.9375C22.8228 10.7461 22.5591 10.6016 22.2466 10.5039C21.938 10.4023 21.5864 10.3516 21.1919 10.3516C20.8364 10.3516 20.5044 10.4004 20.1958 10.498C19.8911 10.5918 19.6274 10.7285 19.4048 10.9082C19.1782 11.0918 18.9985 11.3145 18.8657 11.5762C18.7329 11.8379 18.6646 12.1328 18.6606 12.4609H19.7446C19.7446 12.2578 19.7856 12.084 19.8677 11.9395C19.9497 11.791 20.0591 11.668 20.1958 11.5703C20.3286 11.4766 20.481 11.4082 20.6528 11.3652C20.8286 11.3184 21.0083 11.2949 21.1919 11.2949C21.4302 11.2949 21.6411 11.3262 21.8247 11.3887C22.0083 11.4512 22.1606 11.543 22.2817 11.6641C22.3911 11.7734 22.4731 11.9082 22.5278 12.0684C22.5864 12.2246 22.6157 12.4043 22.6157 12.6074C22.6157 12.8027 22.5786 12.9883 22.5044 13.1641C22.4302 13.3398 22.3364 13.5059 22.2231 13.6621C22.106 13.8223 21.9771 13.9746 21.8364 14.1191C21.6997 14.2637 21.5649 14.4043 21.4321 14.541C21.2368 14.7207 21.0806 14.877 20.9634 15.0098C20.8462 15.1387 20.7563 15.2734 20.6938 15.4141C20.6313 15.5586 20.5903 15.7227 20.5708 15.9062C20.5513 16.0859 20.5396 16.3164 20.5356 16.5977ZM20.4126 18.4316C20.4126 18.6113 20.4673 18.7617 20.5767 18.8828C20.6899 19.0039 20.8579 19.0645 21.0806 19.0645C21.3032 19.0645 21.4712 19.0039 21.5845 18.8828C21.7017 18.7617 21.7603 18.6113 21.7603 18.4316C21.7603 18.2441 21.7017 18.0879 21.5845 17.9629C21.4712 17.8379 21.3032 17.7754 21.0806 17.7754C20.8579 17.7754 20.6899 17.8379 20.5767 17.9629C20.4673 18.0879 20.4126 18.2441 20.4126 18.4316Z"
            fill="white"
            fill-opacity="0.9"
        />
        <path
            d="M38.5415 17.6364V8.90909H39.5983V12.7955H44.2517V8.90909H45.3085V17.6364H44.2517V13.733H39.5983V17.6364H38.5415Z"
            fill="white"
            fill-opacity="0.9"
        />
        <path
            d="M49.5523 17.7727C48.9216 17.7727 48.3776 17.6335 47.9202 17.3551C47.4656 17.0739 47.1148 16.6818 46.8676 16.179C46.6233 15.6733 46.5011 15.0852 46.5011 14.4148C46.5011 13.7443 46.6233 13.1534 46.8676 12.642C47.1148 12.1278 47.4585 11.7273 47.8989 11.4403C48.342 11.1506 48.8591 11.0057 49.45 11.0057C49.7909 11.0057 50.1276 11.0625 50.4599 11.1761C50.7923 11.2898 51.0949 11.4744 51.3676 11.7301C51.6403 11.983 51.8577 12.3182 52.0196 12.7358C52.1815 13.1534 52.2625 13.6676 52.2625 14.2784V14.7045H47.217V13.8352H51.2398C51.2398 13.4659 51.1659 13.1364 51.0182 12.8466C50.8733 12.5568 50.6659 12.3281 50.396 12.1605C50.129 11.9929 49.8136 11.9091 49.45 11.9091C49.0494 11.9091 48.7028 12.0085 48.4102 12.2074C48.1205 12.4034 47.8974 12.6591 47.7412 12.9744C47.5849 13.2898 47.5068 13.6278 47.5068 13.9886V14.5682C47.5068 15.0625 47.592 15.4815 47.7625 15.8253C47.9358 16.1662 48.1759 16.4261 48.4827 16.6051C48.7895 16.7812 49.146 16.8693 49.5523 16.8693C49.8165 16.8693 50.0551 16.8324 50.2682 16.7585C50.4841 16.6818 50.6702 16.5682 50.8264 16.4176C50.9827 16.2642 51.1034 16.0739 51.1886 15.8466L52.1602 16.1193C52.058 16.4489 51.8861 16.7386 51.6446 16.9886C51.4031 17.2358 51.1048 17.429 50.7497 17.5682C50.3946 17.7045 49.9955 17.7727 49.5523 17.7727Z"
            fill="white"
            fill-opacity="0.9"
        />
        <path
            d="M54.318 8.90909V17.6364H53.3123V8.90909H54.318Z"
            fill="white"
            fill-opacity="0.9"
        />
        <path
            d="M55.68 20.0909V11.0909H56.6516V12.1307H56.7709C56.8448 12.017 56.947 11.8722 57.0777 11.696C57.2112 11.517 57.4016 11.358 57.6487 11.2187C57.8987 11.0767 58.2368 11.0057 58.6629 11.0057C59.2141 11.0057 59.6999 11.1435 60.1203 11.419C60.5408 11.6946 60.8689 12.0852 61.1047 12.5909C61.3405 13.0966 61.4584 13.6932 61.4584 14.3807C61.4584 15.0739 61.3405 15.6747 61.1047 16.1832C60.8689 16.6889 60.5422 17.081 60.1246 17.3594C59.707 17.6349 59.2254 17.7727 58.68 17.7727C58.2595 17.7727 57.9229 17.7031 57.67 17.5639C57.4172 17.4219 57.2226 17.2614 57.0862 17.0824C56.9499 16.9006 56.8448 16.75 56.7709 16.6307H56.6857V20.0909H55.68ZM56.6686 14.3636C56.6686 14.858 56.7411 15.294 56.886 15.6719C57.0308 16.0469 57.2425 16.3409 57.5209 16.554C57.7993 16.7642 58.1402 16.8693 58.5436 16.8693C58.9641 16.8693 59.3149 16.7585 59.5962 16.5369C59.8803 16.3125 60.0933 16.0114 60.2354 15.6335C60.3803 15.2528 60.4527 14.8295 60.4527 14.3636C60.4527 13.9034 60.3817 13.4886 60.2396 13.1193C60.1004 12.7472 59.8888 12.4531 59.6047 12.2372C59.3235 12.0185 58.9698 11.9091 58.5436 11.9091C58.1345 11.9091 57.7908 12.0128 57.5124 12.2202C57.234 12.4247 57.0237 12.7116 56.8817 13.081C56.7396 13.4474 56.6686 13.875 56.6686 14.3636Z"
            fill="white"
            fill-opacity="0.9"
        />
    </svg>