<svg
    width="16"
    height="16"
    viewBox="0 0 16 16"
    fill="none"
    xmlns="http://www.w3.org/2000/svg"
>
    <g clip-path="url(#clip0_1_1243)">
        <path
            d="M7.99398 1.33331C4.31398 1.33331 1.33398 4.31998 1.33398 7.99998C1.33398 11.68 4.31398 14.6666 7.99398 14.6666C11.6807 14.6666 14.6673 11.68 14.6673 7.99998C14.6673 4.31998 11.6807 1.33331 7.99398 1.33331ZM8.00065 13.3333C5.05398 13.3333 2.66732 10.9466 2.66732 7.99998C2.66732 5.05331 5.05398 2.66665 8.00065 2.66665C10.9473 2.66665 13.334 5.05331 13.334 7.99998C13.334 10.9466 10.9473 13.3333 8.00065 13.3333Z"
            fill="#5AC7F9"
        />
        <path
            d="M8.33398 4.66669H7.33398V8.66669L10.834 10.7667L11.334 9.94669L8.33398 8.16669V4.66669Z"
            fill="#5AC7F9"
        />
    </g>
    <defs>
        <clipPath id="clip0_1_1243">
            <rect width="16" height="16" fill="white" />
        </clipPath>
    </defs>
</svg>