<svg
    width="16"
    height="16"
    viewBox="0 0 16 16"
    fill="none"
    xmlns="http://www.w3.org/2000/svg"
>
    <path
        d="M7.33337 9.99999H8.66671V11.3333H7.33337V9.99999ZM7.33337 4.66666H8.66671V8.66666H7.33337V4.66666ZM7.99337 1.33333C4.31337 1.33333 1.33337 4.31999 1.33337 7.99999C1.33337 11.68 4.31337 14.6667 7.99337 14.6667C11.68 14.6667 14.6667 11.68 14.6667 7.99999C14.6667 4.31999 11.68 1.33333 7.99337 1.33333ZM8.00004 13.3333C5.05337 13.3333 2.66671 10.9467 2.66671 7.99999C2.66671 5.05333 5.05337 2.66666 8.00004 2.66666C10.9467 2.66666 13.3334 5.05333 13.3334 7.99999C13.3334 10.9467 10.9467 13.3333 8.00004 13.3333Z"
        fill="url(#paint0_linear_1_1269)"
    />
    <defs>
        <linearGradient
            id="paint0_linear_1_1269"
            x1="1.33337"
            y1="1.33333"
            x2="17.126"
            y2="5.63226"
            gradientUnits="userSpaceOnUse"
        >
            <stop stop-color="#FABB18" />
            <stop offset="1" stop-color="#C48E02" />
        </linearGradient>
    </defs>
</svg>