<svg
        width="35"
        height="20"
        viewBox="0 0 35 20"
        fill="none"
        xmlns="http://www.w3.org/2000/svg"
    >
        <path
            d="M4.36628 20H30.6337C33.526 20 35 18.6836 35 16.0759V3.91134C35 1.31644 33.526 0 30.6337 0H4.36628C1.44616 0 0 1.30378 0 3.91134V16.0759C0 18.6836 1.44616 20 4.36628 20ZM4.3941 17.962C3.00359 17.962 2.23873 17.2785 2.23873 15.962V4.02531C2.23873 2.70886 3.00359 2.03793 4.3941 2.03793H30.592C31.9686 2.03793 32.7613 2.70886 32.7613 4.02531V15.962C32.7613 17.2785 31.9686 17.962 30.592 17.962H4.3941ZM5.64561 7.05064H6.92495C7.31423 7.05064 7.55071 6.83547 7.55071 6.49367V5.32909C7.55071 4.97462 7.31423 4.75945 6.92495 4.75945H5.64561C5.27014 4.75945 5.03377 4.97462 5.03377 5.32909V6.49367C5.03377 6.83547 5.27014 7.05064 5.64561 7.05064ZM10.1232 7.05064H11.4025C11.7779 7.05064 12.0144 6.83547 12.0144 6.49367V5.32909C12.0144 4.97462 11.7779 4.75945 11.4025 4.75945H10.1232C9.73379 4.75945 9.49742 4.97462 9.49742 5.32909V6.49367C9.49742 6.83547 9.73379 7.05064 10.1232 7.05064ZM14.6007 7.05064H15.8662C16.2554 7.05064 16.4918 6.83547 16.4918 6.49367V5.32909C16.4918 4.97462 16.2554 4.75945 15.8662 4.75945H14.6007C14.2114 4.75945 13.975 4.97462 13.975 5.32909V6.49367C13.975 6.83547 14.2114 7.05064 14.6007 7.05064ZM19.0644 7.05064H20.3436C20.733 7.05064 20.9694 6.83547 20.9694 6.49367V5.32909C20.9694 4.97462 20.733 4.75945 20.3436 4.75945H19.0644C18.6889 4.75945 18.4525 4.97462 18.4525 5.32909V6.49367C18.4525 6.83547 18.6889 7.05064 19.0644 7.05064ZM23.542 7.05064H24.8212C25.1967 7.05064 25.433 6.83547 25.433 6.49367V5.32909C25.433 4.97462 25.1967 4.75945 24.8212 4.75945H23.542C23.1526 4.75945 22.9162 4.97462 22.9162 5.32909V6.49367C22.9162 6.83547 23.1526 7.05064 23.542 7.05064ZM28.0195 7.05064H29.2848C29.6742 7.05064 29.9106 6.83547 29.9106 6.49367V5.32909C29.9106 4.97462 29.6742 4.75945 29.2848 4.75945H28.0195C27.6301 4.75945 27.3938 4.97462 27.3938 5.32909V6.49367C27.3938 6.83547 27.6301 7.05064 28.0195 7.05064ZM5.64561 11.1266H6.92495C7.31423 11.1266 7.55071 10.9113 7.55071 10.557V9.40504C7.55071 9.05058 7.31423 8.83541 6.92495 8.83541H5.64561C5.27014 8.83541 5.03377 9.05058 5.03377 9.40504V10.557C5.03377 10.9113 5.27014 11.1266 5.64561 11.1266ZM10.1232 11.1266H11.4025C11.7779 11.1266 12.0144 10.9113 12.0144 10.557V9.40504C12.0144 9.05058 11.7779 8.83541 11.4025 8.83541H10.1232C9.73379 8.83541 9.49742 9.05058 9.49742 9.40504V10.557C9.49742 10.9113 9.73379 11.1266 10.1232 11.1266ZM14.6007 11.1266H15.8662C16.2554 11.1266 16.4918 10.9113 16.4918 10.557V9.40504C16.4918 9.05058 16.2554 8.83541 15.8662 8.83541H14.6007C14.2114 8.83541 13.975 9.05058 13.975 9.40504V10.557C13.975 10.9113 14.2114 11.1266 14.6007 11.1266ZM19.0644 11.1266H20.3436C20.733 11.1266 20.9694 10.9113 20.9694 10.557V9.40504C20.9694 9.05058 20.733 8.83541 20.3436 8.83541H19.0644C18.6889 8.83541 18.4525 9.05058 18.4525 9.40504V10.557C18.4525 10.9113 18.6889 11.1266 19.0644 11.1266ZM23.542 11.1266H24.8212C25.1967 11.1266 25.433 10.9113 25.433 10.557V9.40504C25.433 9.05058 25.1967 8.83541 24.8212 8.83541H23.542C23.1526 8.83541 22.9162 9.05058 22.9162 9.40504V10.557C22.9162 10.9113 23.1526 11.1266 23.542 11.1266ZM28.0195 11.1266H29.2848C29.6742 11.1266 29.9106 10.9113 29.9106 10.557V9.40504C29.9106 9.05058 29.6742 8.83541 29.2848 8.83541H28.0195C27.6301 8.83541 27.3938 9.05058 27.3938 9.40504V10.557C27.3938 10.9113 27.6301 11.1266 28.0195 11.1266ZM5.64561 15.2026H6.92495C7.31423 15.2026 7.55071 14.9873 7.55071 14.6329V13.4683C7.55071 13.1265 7.31423 12.9114 6.92495 12.9114H5.64561C5.27014 12.9114 5.03377 13.1265 5.03377 13.4683V14.6329C5.03377 14.9873 5.27014 15.2026 5.64561 15.2026ZM10.2622 15.2026H24.6822C25.1549 15.2026 25.433 14.9494 25.433 14.5063V13.595C25.433 13.1645 25.1549 12.9114 24.6822 12.9114H10.2622C9.77552 12.9114 9.49742 13.1645 9.49742 13.595V14.5063C9.49742 14.9494 9.77552 15.2026 10.2622 15.2026ZM28.0195 15.2026H29.2848C29.6742 15.2026 29.9106 14.9873 29.9106 14.6329V13.4683C29.9106 13.1265 29.6742 12.9114 29.2848 12.9114H28.0195C27.6301 12.9114 27.3938 13.1265 27.3938 13.4683V14.6329C27.3938 14.9873 27.6301 15.2026 28.0195 15.2026Z"
            fill="white"
            fill-opacity="0.5"
        />
    </svg>