<svg width="16" height="16" viewBox="0 0 16 16" fill="currentColor" xmlns="http://www.w3.org/2000/svg">
<path d="M2 4.16667C2 3.59203 2.22827 3.04093 2.6346 2.6346C3.04093 2.22827 3.59203 2 4.16667 2H11.8333C12.408 2 12.9591 2.22827 13.3654 2.6346C13.7717 3.04093 14 3.59203 14 4.16667V11.8333C14 12.408 13.7717 12.9591 13.3654 13.3654C12.9591 13.7717 12.408 14 11.8333 14H4.16667C3.59203 14 3.04093 13.7717 2.6346 13.3654C2.22827 12.9591 2 12.408 2 11.8333V4.16667ZM8.33333 6.16667C8.33333 6.44267 8.55733 6.66667 8.83333 6.66667H11.1667C11.2993 6.66667 11.4265 6.61399 11.5202 6.52022C11.614 6.42645 11.6667 6.29927 11.6667 6.16667C11.6667 6.03406 11.614 5.90688 11.5202 5.81311C11.4265 5.71935 11.2993 5.66667 11.1667 5.66667H8.83333C8.70073 5.66667 8.57355 5.71935 8.47978 5.81311C8.38601 5.90688 8.33333 6.03406 8.33333 6.16667ZM8.83333 9.33333C8.70073 9.33333 8.57355 9.38601 8.47978 9.47978C8.38601 9.57355 8.33333 9.70073 8.33333 9.83333C8.33333 9.96594 8.38601 10.0931 8.47978 10.1869C8.57355 10.2807 8.70073 10.3333 8.83333 10.3333H11.1667C11.2993 10.3333 11.4265 10.2807 11.5202 10.1869C11.614 10.0931 11.6667 9.96594 11.6667 9.83333C11.6667 9.70073 11.614 9.57355 11.5202 9.47978C11.4265 9.38601 11.2993 9.33333 11.1667 9.33333H8.83333ZM7.18667 5.85333C7.23579 5.80756 7.27519 5.75236 7.30252 5.69103C7.32985 5.62969 7.34454 5.56348 7.34573 5.49635C7.34691 5.42921 7.33456 5.36253 7.30942 5.30027C7.28427 5.23801 7.24684 5.18145 7.19936 5.13397C7.15188 5.0865 7.09532 5.04907 7.03307 5.02392C6.97081 4.99877 6.90412 4.98642 6.83699 4.98761C6.76985 4.98879 6.70364 5.00348 6.64231 5.03081C6.58098 5.05814 6.52577 5.09754 6.48 5.14667L5.5 6.12667L5.18667 5.81333C5.09188 5.72501 4.96652 5.67693 4.83699 5.67922C4.70745 5.6815 4.58386 5.73398 4.49225 5.82559C4.40064 5.91719 4.34817 6.04078 4.34588 6.17032C4.3436 6.29985 4.39168 6.42522 4.48 6.52L5.14667 7.18667C5.24042 7.2803 5.3675 7.33289 5.5 7.33289C5.6325 7.33289 5.75958 7.2803 5.85333 7.18667L7.18667 5.85333ZM7.18667 8.81333C7.09292 8.7197 6.96583 8.66711 6.83333 8.66711C6.70083 8.66711 6.57375 8.7197 6.48 8.81333L5.5 9.79333L5.18667 9.48C5.09188 9.39168 4.96652 9.3436 4.83699 9.34588C4.70745 9.34817 4.58386 9.40064 4.49225 9.49225C4.40064 9.58386 4.34817 9.70745 4.34588 9.83699C4.3436 9.96652 4.39168 10.0919 4.48 10.1867L5.14667 10.8533C5.24042 10.947 5.3675 10.9996 5.5 10.9996C5.6325 10.9996 5.75958 10.947 5.85333 10.8533L7.18667 9.52C7.2803 9.42625 7.33289 9.29917 7.33289 9.16667C7.33289 9.03417 7.2803 8.90708 7.18667 8.81333Z"/>
</svg>
