<svg width="24" height="24" viewBox="0 0 24 24" fill="none" xmlns="http://www.w3.org/2000/svg">
<path fill-rule="evenodd" clip-rule="evenodd" d="M6 5C5.44772 5 5 5.44771 5 6V7.99957C5 8.55186 5.44772 8.99957 6 8.99957H19C19.5523 8.99957 20 8.55186 20 7.99957V6C20 5.44772 19.5523 5 19 5H6ZM18 7.99783C18.5523 7.99783 19 7.55016 19 6.99794C19 6.44571 18.5523 5.99805 18 5.99805C17.4477 5.99805 17 6.44571 17 6.99794C17 7.55016 17.4477 7.99783 18 7.99783Z" fill="black"/>
<path fill-rule="evenodd" clip-rule="evenodd" d="M6 9.99805C5.44772 9.99805 5 10.4458 5 10.998V12.9976C5 13.5499 5.44772 13.9976 6 13.9976H19C19.5523 13.9976 20 13.5499 20 12.9976V10.998C20 10.4458 19.5523 9.99805 19 9.99805H6ZM18 12.9978C18.5523 12.9978 19 12.5502 19 11.9979C19 11.4457 18.5523 10.998 18 10.998C17.4477 10.998 17 11.4457 17 11.9979C17 12.5502 17.4477 12.9978 18 12.9978Z" fill="black"/>
<path fill-rule="evenodd" clip-rule="evenodd" d="M6 15C5.44772 15 5 15.4477 5 16V17.9996C5 18.5519 5.44772 18.9996 6 18.9996H19C19.5523 18.9996 20 18.5519 20 17.9996V16C20 15.4477 19.5523 15 19 15H6ZM18 17.9978C18.5523 17.9978 19 17.5502 19 16.9979C19 16.4457 18.5523 15.998 18 15.998C17.4477 15.998 17 16.4457 17 16.9979C17 17.5502 17.4477 17.9978 18 17.9978Z" fill="black"/>
</svg>
