<svg width="20" height="20" viewBox="0 0 20 20" fill="none" xmlns="http://www.w3.org/2000/svg">
<g clip-path="url(#clip0_1_1169)">
<path d="M8.33594 6.66663V11.6666L12.2526 14.0833L12.9193 13.0833L9.58594 11.0833V6.66663H8.33594Z" fill="white" fill-opacity="0.9"/>
<path d="M14.9346 9.99992C14.9763 10.2749 15.0013 10.5499 15.0013 10.8333C15.0013 14.0833 12.418 16.6666 9.16797 16.6666C5.91797 16.6666 3.33464 14.0833 3.33464 10.8333C3.33464 7.58325 5.91797 4.99992 9.16797 4.99992C9.7513 4.99992 10.3096 5.08325 10.8346 5.24159V3.52492C10.3013 3.39992 9.74297 3.33325 9.16797 3.33325C5.0013 3.33325 1.66797 6.66659 1.66797 10.8333C1.66797 14.9999 5.0013 18.3333 9.16797 18.3333C13.3346 18.3333 16.668 14.9999 16.668 10.8333C16.668 10.5499 16.6513 10.2749 16.618 9.99992H14.9346Z" fill="white" fill-opacity="0.9"/>
<path d="M16.6667 4.16663V1.66663H15V4.16663H12.5V5.83329H15V8.33329H16.6667V5.83329H19.1667V4.16663H16.6667Z" fill="white" fill-opacity="0.9"/>
</g>
<defs>
<clipPath id="clip0_1_1169">
<rect width="20" height="20" fill="white"/>
</clipPath>
</defs>
</svg>
