<svg
        width="39"
        height="39"
        viewBox="0 0 39 39"
        fill="none"
        xmlns="http://www.w3.org/2000/svg"
    >
        <path
            d="M39 19.5C39 30.2696 30.2696 39 19.5 39C8.73045 39 0 30.2696 0 19.5C0 8.73045 8.73045 0 19.5 0C30.2696 0 39 8.73045 39 19.5Z"
            fill="#363842"
        />
        <ellipse
            cx="19.1666"
            cy="15.7618"
            rx="3.78261"
            ry="3.78261"
            stroke="white"
            stroke-opacity="0.5"
            stroke-linecap="round"
            stroke-linejoin="round"
        />
        <path
            fill-rule="evenodd"
            clip-rule="evenodd"
            d="M13.1666 24.8053C13.1656 24.5393 13.2251 24.2767 13.3406 24.0371C13.7029 23.3125 14.7246 22.9284 15.5724 22.7545C16.1839 22.624 16.8038 22.5369 17.4275 22.4937C18.5823 22.3922 19.7437 22.3922 20.8985 22.4937C21.5222 22.5374 22.1421 22.6245 22.7536 22.7545C23.6014 22.9284 24.6232 23.2763 24.9855 24.0371C25.2177 24.5254 25.2177 25.0923 24.9855 25.5806C24.6232 26.3415 23.6014 26.6893 22.7536 26.856C22.1429 26.9919 21.5227 27.0815 20.8985 27.1241C19.9586 27.2038 19.0143 27.2183 18.0724 27.1676C17.855 27.1676 17.6449 27.1676 17.4275 27.1241C16.8056 27.082 16.1879 26.9924 15.5797 26.856C14.7246 26.6893 13.7101 26.3415 13.3406 25.5806C13.2257 25.3383 13.1663 25.0734 13.1666 24.8053Z"
            stroke="white"
            stroke-opacity="0.5"
            stroke-linecap="round"
            stroke-linejoin="round"
        />
    </svg>