<svg width="24" height="24" viewBox="0 0 24 24" fill="none" xmlns="http://www.w3.org/2000/svg">
<rect width="24" height="24" rx="12" fill="white" fill-opacity="0.2"/>
<path d="M16.873 7.13348C16.8111 7.07191 16.7328 7.02929 16.6475 7.01061C16.5621 6.99194 16.4732 6.998 16.3912 7.02806L6.29613 10.6945C6.20907 10.7275 6.13411 10.7862 6.08122 10.8627C6.02833 10.9393 6 11.0301 6 11.1231C6 11.2161 6.02833 11.3069 6.08122 11.3834C6.13411 11.4599 6.20907 11.5186 6.29613 11.5516L10.2378 13.1236L13.147 10.2087L13.794 10.855L10.871 13.7744L12.4495 17.7113C12.4835 17.7965 12.5424 17.8697 12.6185 17.9211C12.6946 17.9726 12.7844 18.0001 12.8763 18C12.969 17.9981 13.059 17.9682 13.1343 17.9142C13.2097 17.8602 13.2669 17.7846 13.2984 17.6975L16.9693 7.6147C17.0006 7.53362 17.0082 7.44532 16.9911 7.36012C16.974 7.27492 16.9331 7.19631 16.873 7.13348Z" fill="#1E1F25"/>
</svg>
