<svg width="16" height="16" viewBox="0 0 16 16" fill="currentColor" xmlns="http://www.w3.org/2000/svg">
<path d="M2.40002 3.20002C2.40002 2.98785 2.48431 2.78437 2.63434 2.63434C2.78437 2.48431 2.98785 2.40002 3.20002 2.40002H12.8C13.0122 2.40002 13.2157 2.48431 13.3657 2.63434C13.5157 2.78437 13.6 2.98785 13.6 3.20002V4.80002C13.6 5.0122 13.5157 5.21568 13.3657 5.36571C13.2157 5.51574 13.0122 5.60002 12.8 5.60002H3.20002C2.98785 5.60002 2.78437 5.51574 2.63434 5.36571C2.48431 5.21568 2.40002 5.0122 2.40002 4.80002V3.20002ZM2.40002 8.00002C2.40002 7.78785 2.48431 7.58437 2.63434 7.43434C2.78437 7.28431 2.98785 7.20002 3.20002 7.20002H8.00002C8.2122 7.20002 8.41568 7.28431 8.56571 7.43434C8.71574 7.58437 8.80002 7.78785 8.80002 8.00002V12.8C8.80002 13.0122 8.71574 13.2157 8.56571 13.3657C8.41568 13.5157 8.2122 13.6 8.00002 13.6H3.20002C2.98785 13.6 2.78437 13.5157 2.63434 13.3657C2.48431 13.2157 2.40002 13.0122 2.40002 12.8V8.00002ZM11.2 7.20002C10.9879 7.20002 10.7844 7.28431 10.6343 7.43434C10.4843 7.58437 10.4 7.78785 10.4 8.00002V12.8C10.4 13.0122 10.4843 13.2157 10.6343 13.3657C10.7844 13.5157 10.9879 13.6 11.2 13.6H12.8C13.0122 13.6 13.2157 13.5157 13.3657 13.3657C13.5157 13.2157 13.6 13.0122 13.6 12.8V8.00002C13.6 7.78785 13.5157 7.58437 13.3657 7.43434C13.2157 7.28431 13.0122 7.20002 12.8 7.20002H11.2Z"/>
</svg>
