<svg width="20" height="20" viewBox="0 0 20 20" fill="none" xmlns="http://www.w3.org/2000/svg">
<path d="M8.6 5.8H11.4C11.4 5.4287 11.2525 5.0726 10.9899 4.81005C10.7274 4.5475 10.3713 4.4 10 4.4C9.6287 4.4 9.2726 4.5475 9.01005 4.81005C8.7475 5.0726 8.6 5.4287 8.6 5.8ZM7.2 5.8C7.2 5.05739 7.495 4.3452 8.0201 3.8201C8.5452 3.295 9.25739 3 10 3C10.7426 3 11.4548 3.295 11.9799 3.8201C12.505 4.3452 12.8 5.05739 12.8 5.8H16.3C16.4857 5.8 16.6637 5.87375 16.795 6.00503C16.9263 6.1363 17 6.31435 17 6.5C17 6.68565 16.9263 6.8637 16.795 6.99497C16.6637 7.12625 16.4857 7.2 16.3 7.2H15.6826L15.0624 14.438C15.0028 15.1369 14.683 15.788 14.1663 16.2624C13.6496 16.7369 12.9737 17.0001 12.2722 17H7.7278C7.02634 17.0001 6.35039 16.7369 5.8337 16.2624C5.31702 15.788 4.99722 15.1369 4.9376 14.438L4.3174 7.2H3.7C3.51435 7.2 3.3363 7.12625 3.20503 6.99497C3.07375 6.8637 3 6.68565 3 6.5C3 6.31435 3.07375 6.1363 3.20503 6.00503C3.3363 5.87375 3.51435 5.8 3.7 5.8H7.2ZM12.1 10C12.1 9.81435 12.0262 9.6363 11.895 9.50503C11.7637 9.37375 11.5857 9.3 11.4 9.3C11.2143 9.3 11.0363 9.37375 10.905 9.50503C10.7737 9.6363 10.7 9.81435 10.7 10V12.8C10.7 12.9857 10.7737 13.1637 10.905 13.295C11.0363 13.4263 11.2143 13.5 11.4 13.5C11.5857 13.5 11.7637 13.4263 11.895 13.295C12.0262 13.1637 12.1 12.9857 12.1 12.8V10ZM8.6 9.3C8.41435 9.3 8.2363 9.37375 8.10503 9.50503C7.97375 9.6363 7.9 9.81435 7.9 10V12.8C7.9 12.9857 7.97375 13.1637 8.10503 13.295C8.2363 13.4263 8.41435 13.5 8.6 13.5C8.78565 13.5 8.9637 13.4263 9.09497 13.295C9.22625 13.1637 9.3 12.9857 9.3 12.8V10C9.3 9.81435 9.22625 9.6363 9.09497 9.50503C8.9637 9.37375 8.78565 9.3 8.6 9.3Z" fill="white" fill-opacity="0.6"/>
</svg>
