<svg width="30" height="30" viewBox="0 0 30 30" fill="none" xmlns="http://www.w3.org/2000/svg">
<g clip-path="url(#clip0_1_3957)">
<circle cx="15" cy="15" r="15" fill="url(#paint0_linear_1_3957)"/>
<path fill-rule="evenodd" clip-rule="evenodd" d="M19.1194 9.36415H10.8791C10.042 9.36415 9.3634 10.0427 9.3634 10.8798V19.1201C9.3634 19.9572 10.042 20.6358 10.8791 20.6358H19.1194C19.9565 20.6358 20.635 19.9572 20.635 19.1201V10.8798C20.635 10.0427 19.9565 9.36415 19.1194 9.36415ZM13.847 11.6386H11.9682C11.7324 11.6386 11.5411 11.8298 11.5411 12.0657V17.5235C11.5411 17.7594 11.7324 17.9507 11.9682 17.9507H13.847C14.0829 17.9507 14.2741 17.7594 14.2741 17.5235V12.0657C14.2741 11.8298 14.0829 11.6386 13.847 11.6386ZM16.1518 11.6386H18.0306C18.2665 11.6386 18.4577 11.8298 18.4577 12.0657V15.0189C18.4577 15.2547 18.2665 15.446 18.0306 15.446H16.1518C15.916 15.446 15.7247 15.2547 15.7247 15.0189V12.0657C15.7247 11.8298 15.916 11.6386 16.1518 11.6386Z" fill="#1E202A"/>
</g>
<defs>
<linearGradient id="paint0_linear_1_3957" x1="0" y1="0" x2="35.5334" y2="9.6726" gradientUnits="userSpaceOnUse">
<stop stop-color="#FABB18"/>
<stop offset="1" stop-color="#C48E02"/>
</linearGradient>
<clipPath id="clip0_1_3957">
<rect width="30" height="30" fill="white"/>
</clipPath>
</defs>
</svg>
