<svg width="20" height="20" viewBox="0 0 20 20" fill="none" xmlns="http://www.w3.org/2000/svg">
    <path fill-rule="evenodd" clip-rule="evenodd"
        d="M17.6257 0H2.37747C1.0657 0 0.00180651 1.0451 1.91658e-05 2.33543V17.3125C-0.00251745 17.9343 0.246833 18.5316 0.692965 18.9722C1.1391 19.4128 1.74527 19.6605 2.37747 19.6605H17.6257C18.2574 19.6597 18.8627 19.4116 19.3082 18.9711C19.7536 18.5306 20.0025 17.9338 20 17.3125V2.33543C19.9982 1.04633 18.9363 0.00173617 17.6257 0ZM8.62545 14.1607C8.6246 14.3686 8.53963 14.5676 8.38931 14.7136C8.239 14.8597 8.03572 14.9409 7.82442 14.9392H4.49217C4.05634 14.9375 3.70397 14.5895 3.70397 14.1607V4.40612C3.70397 3.97741 4.05634 3.62938 4.49217 3.62765H7.82442C8.26078 3.62937 8.61408 3.9769 8.61583 4.40612L8.62545 14.1607ZM16.3153 9.68213C16.3153 9.89024 16.2306 10.0897 16.0801 10.236C15.9296 10.3822 15.7258 10.4631 15.5142 10.4607H12.182C11.7456 10.4589 11.3923 10.1114 11.3906 9.68213V4.40612C11.3923 3.9769 11.7456 3.62937 12.182 3.62765H15.5142C15.9501 3.62938 16.3024 3.97741 16.3024 4.40612L16.3153 9.68213Z"
        fill="url(#paint0_linear_1_6112)" />
    <defs>
        <linearGradient id="paint0_linear_1_6112" x1="0" y1="0" x2="23.6321" y2="6.54402"
            gradientUnits="userSpaceOnUse">
            <stop stop-color="#FABB18" />
            <stop offset="1" stop-color="#C48E02" />
        </linearGradient>
    </defs>
</svg>