<svg
        width="17"
        height="17"
        viewBox="0 0 17 17"
        fill="none"
        xmlns="http://www.w3.org/2000/svg"
    >
        <g clip-path="url(#clip0_427_2415)">
            <circle
                cx="8.5"
                cy="8.5"
                r="8.5"
                fill="url(#paint0_linear_427_2415)"
            />
            <g clip-path="url(#clip1_427_2415)">
                <path
                    fill-rule="evenodd"
                    clip-rule="evenodd"
                    d="M11.1482 4.87695H5.85082C5.3127 4.87695 4.87646 5.31319 4.87646 5.85131V11.1487C4.87646 11.6868 5.3127 12.123 5.85082 12.123H11.1482C11.6863 12.123 12.1225 11.6868 12.1225 11.1487V5.85131C12.1225 5.31319 11.6863 4.87695 11.1482 4.87695ZM7.7588 6.33912H6.55101C6.39937 6.33912 6.27644 6.46204 6.27644 6.61369V10.1223C6.27644 10.2739 6.39937 10.3969 6.55101 10.3969H7.7588C7.91044 10.3969 8.03337 10.2739 8.03337 10.1223V6.61369C8.03337 6.46204 7.91044 6.33912 7.7588 6.33912ZM9.24046 6.33912H10.4483C10.5999 6.33912 10.7228 6.46204 10.7228 6.61369V8.51212C10.7228 8.66376 10.5999 8.78669 10.4483 8.78669H9.24046C9.08882 8.78669 8.96589 8.66376 8.96589 8.51212V6.61369C8.96589 6.46204 9.08882 6.33912 9.24046 6.33912Z"
                    fill="#1E202A"
                />
            </g>
        </g>
        <defs>
            <linearGradient
                id="paint0_linear_427_2415"
                x1="0"
                y1="0"
                x2="20.1356"
                y2="5.48114"
                gradientUnits="userSpaceOnUse"
            >
                <stop stop-color="#FABB18" />
                <stop offset="1" stop-color="#C48E02" />
            </linearGradient>
            <clipPath id="clip0_427_2415">
                <rect width="17" height="17" fill="white" />
            </clipPath>
            <clipPath id="clip1_427_2415">
                <rect
                    width="9"
                    height="9"
                    fill="white"
                    transform="translate(4 4)"
                />
            </clipPath>
        </defs>
    </svg>