<svg width="16" height="16" viewBox="0 0 16 16" fill="none" xmlns="http://www.w3.org/2000/svg">
<path d="M11.06 5.05334L6.66671 9.44668L4.27337 7.06001L3.33337 8.00001L6.66671 11.3333L12 6.00001L11.06 5.05334ZM8.00004 1.33334C4.32004 1.33334 1.33337 4.32001 1.33337 8.00001C1.33337 11.68 4.32004 14.6667 8.00004 14.6667C11.68 14.6667 14.6667 11.68 14.6667 8.00001C14.6667 4.32001 11.68 1.33334 8.00004 1.33334ZM8.00004 13.3333C5.05337 13.3333 2.66671 10.9467 2.66671 8.00001C2.66671 5.05334 5.05337 2.66668 8.00004 2.66668C10.9467 2.66668 13.3334 5.05334 13.3334 8.00001C13.3334 10.9467 10.9467 13.3333 8.00004 13.3333Z" fill="#5DCF41" fill-opacity="0.9"/>
</svg>
